# xmcd CD database file
#
# Track frame offsets:
#	150
#	21519
#	35612
#	50392
#	67970
#	82620
#	94547
#	112075
#	122512
#	138022
#
# Disc length: 2036 seconds
#
# Revision: 3
# Processed by: cddbd v1.5.2PL0 Copyright (c) Steve Scherf et al.
# Submitted via: CDex 1.79
#
DISCID=7607f20a
DTITLE=Raybon Bros - Raybon Bros
DYEAR=1997
DGENRE=Country
TTITLE0=Butterfly Kisses
TTITLE1=The Way She's Looking
TTITLE2=Falling (featuring Olivia Newton-John)
TTITLE3=Gettin' Ready For The World To End
TTITLE4=Baby Blue
TTITLE5=Your Love
TTITLE6=Every Fire
TTITLE7=Hello Love
TTITLE8=Just Tryin' To Keep The Woman I Got
TTITLE9=Tangled Up In Love
EXTD=Corrected Titles and Year YEAR: 1997
EXTT0=
EXTT1=
EXTT2=
EXTT3=
EXTT4=
EXTT5=
EXTT6=
EXTT7=
EXTT8=
EXTT9=
PLAYORDER=
